<svg width="48" height="48" viewBox="0 0 48 48" fill="none" xmlns="http://www.w3.org/2000/svg">
  <path d="M43.5995 5.516C41.3335 3.248 38.3195 2 35.1155 2C31.9095 2 28.8955 3.25 26.6295 5.516L2.6295 29.516C-0.8765 33.024 -0.8765 38.734 2.6295 42.244C4.3835 43.998 6.6895 44.874 8.9935 44.874C11.2975 44.874 13.6035 43.996 15.3595 42.242L38.3235 19.204C40.2715 17.252 40.2715 14.082 38.3235 12.134C36.4355 10.246 33.1395 10.246 31.2535 12.134L14.2515 29.134C13.8615 29.524 13.8615 30.158 14.2515 30.548C14.6415 30.938 15.2755 30.938 15.6655 30.548L32.6675 13.548C33.7975 12.414 35.7755 12.416 36.9095 13.548C38.0775 14.716 38.0775 16.62 36.9095 17.79L13.9435 40.828C11.2155 43.558 6.7755 43.558 4.0435 40.828C1.3155 38.098 1.3155 33.658 4.0435 30.928L28.0435 6.928C29.9335 5.038 32.4455 3.998 35.1155 3.998C37.7855 3.998 40.2975 5.04 42.1855 6.928C44.0755 8.816 45.1155 11.328 45.1155 13.998C45.1155 16.668 44.0755 19.18 42.1855 21.068L25.1855 38.068C24.7955 38.458 24.7955 39.092 25.1855 39.482C25.5755 39.872 26.2095 39.872 26.5995 39.482L43.5995 22.482C45.8655 20.216 47.1155 17.204 47.1155 13.998C47.1155 10.794 45.8655 7.78 43.5995 5.516Z" fill="#0056B4"/>
  <mask id="mask0_4212_277" style="mask-type:luminance" maskUnits="userSpaceOnUse" x="0" y="2" width="48" height="43">
    <path d="M43.5995 5.516C41.3335 3.248 38.3195 2 35.1155 2C31.9095 2 28.8955 3.25 26.6295 5.516L2.6295 29.516C-0.8765 33.024 -0.8765 38.734 2.6295 42.244C4.3835 43.998 6.6895 44.874 8.9935 44.874C11.2975 44.874 13.6035 43.996 15.3595 42.242L38.3235 19.204C40.2715 17.252 40.2715 14.082 38.3235 12.134C36.4355 10.246 33.1395 10.246 31.2535 12.134L14.2515 29.134C13.8615 29.524 13.8615 30.158 14.2515 30.548C14.6415 30.938 15.2755 30.938 15.6655 30.548L32.6675 13.548C33.7975 12.414 35.7755 12.416 36.9095 13.548C38.0775 14.716 38.0775 16.62 36.9095 17.79L13.9435 40.828C11.2155 43.558 6.7755 43.558 4.0435 40.828C1.3155 38.098 1.3155 33.658 4.0435 30.928L28.0435 6.928C29.9335 5.038 32.4455 3.998 35.1155 3.998C37.7855 3.998 40.2975 5.04 42.1855 6.928C44.0755 8.816 45.1155 11.328 45.1155 13.998C45.1155 16.668 44.0755 19.18 42.1855 21.068L25.1855 38.068C24.7955 38.458 24.7955 39.092 25.1855 39.482C25.5755 39.872 26.2095 39.872 26.5995 39.482L43.5995 22.482C45.8655 20.216 47.1155 17.204 47.1155 13.998C47.1155 10.794 45.8655 7.78 43.5995 5.516Z" fill="white"/>
  </mask>
  <g mask="url(#mask0_4212_277)">
    <rect width="48" height="48" transform="matrix(1 0 0 -1 0 48)" fill="#0056B4"/>
  </g>
</svg>
