<svg width="24" height="24" viewBox="0 0 24 24" fill="none" xmlns="http://www.w3.org/2000/svg">
  <g clip-path="url(#clip0_3911_58033)">
    <path fill-rule="evenodd" clip-rule="evenodd" d="M3 1.5C3 1.224 3.223 1 3.5 1C3.775 1 4 1.224 4 1.5C4 1.776 3.775 2 3.5 2C3.223 2 3 1.776 3 1.5ZM5 1.5C5 1.224 5.223 1 5.5 1C5.775 1 6 1.224 6 1.5C6 1.776 5.775 2 5.5 2C5.223 2 5 1.776 5 1.5ZM7.5 1C7.223 1 7 1.224 7 1.5C7 1.776 7.223 2 7.5 2C7.775 2 8 1.776 8 1.5C8 1.224 7.775 1 7.5 1ZM9 1.5C9 1.224 9.223 1 9.5 1C9.775 1 10 1.224 10 1.5C10 1.776 9.775 2 9.5 2C9.223 2 9 1.776 9 1.5ZM11.5 1C11.223 1 11 1.224 11 1.5C11 1.776 11.223 2 11.5 2C11.775 2 12 1.776 12 1.5C12 1.224 11.775 1 11.5 1ZM13 1.5C13 1.224 13.223 1 13.5 1C13.775 1 14 1.224 14 1.5C14 1.776 13.775 2 13.5 2C13.223 2 13 1.776 13 1.5ZM15.5 1C15.223 1 15 1.224 15 1.5C15 1.776 15.223 2 15.5 2C15.775 2 16 1.776 16 1.5C16 1.224 15.775 1 15.5 1ZM15 3.5C15 3.224 15.223 3 15.5 3C15.775 3 16 3.224 16 3.5C16 3.776 15.775 4 15.5 4C15.223 4 15 3.776 15 3.5ZM15.5 5C15.223 5 15 5.224 15 5.5C15 5.776 15.223 6 15.5 6C15.775 6 16 5.776 16 5.5C16 5.224 15.775 5 15.5 5ZM17.5 3.5C17.5 3.224 17.723 3 18 3C18.275 3 18.5 3.224 18.5 3.5C18.5 3.776 18.275 4 18 4C17.723 4 17.5 3.776 17.5 3.5ZM15.5 7C15.223 7 15 7.224 15 7.5C15 7.776 15.223 8 15.5 8C15.775 8 16 7.776 16 7.5C16 7.224 15.775 7 15.5 7ZM19 5C19 4.724 19.223 4.5 19.5 4.5C19.775 4.5 20 4.724 20 5C20 5.276 19.775 5.5 19.5 5.5C19.223 5.5 19 5.276 19 5ZM5.5 23C5.223 23 5 23.224 5 23.5C5 23.776 5.223 24 5.5 24C5.775 24 6 23.776 6 23.5C6 23.224 5.775 23 5.5 23ZM7 23.5C7 23.224 7.223 23 7.5 23C7.775 23 8 23.224 8 23.5C8 23.776 7.775 24 7.5 24C7.223 24 7 23.776 7 23.5ZM9.5 23C9.223 23 9 23.224 9 23.5C9 23.776 9.223 24 9.5 24C9.775 24 10 23.776 10 23.5C10 23.224 9.775 23 9.5 23ZM11 23.5C11 23.224 11.223 23 11.5 23C11.775 23 12 23.224 12 23.5C12 23.776 11.775 24 11.5 24C11.223 24 11 23.776 11 23.5ZM13.5 23C13.223 23 13 23.224 13 23.5C13 23.776 13.223 24 13.5 24C13.775 24 14 23.776 14 23.5C14 23.224 13.775 23 13.5 23ZM15 23.5C15 23.224 15.223 23 15.5 23C15.775 23 16 23.224 16 23.5C16 23.776 15.775 24 15.5 24C15.223 24 15 23.776 15 23.5ZM17.5 23C17.223 23 17 23.224 17 23.5C17 23.776 17.223 24 17.5 24C17.775 24 18 23.776 18 23.5C18 23.224 17.775 23 17.5 23ZM19 23.5C19 23.224 19.223 23 19.5 23C19.775 23 20 23.224 20 23.5C20 23.776 19.775 24 19.5 24C19.223 24 19 23.776 19 23.5ZM3.5 3C3.223 3 3 3.224 3 3.5C3 3.776 3.223 4 3.5 4C3.775 4 4 3.776 4 3.5C4 3.224 3.775 3 3.5 3ZM3 5.5C3 5.224 3.223 5 3.5 5C3.775 5 4 5.224 4 5.5C4 5.776 3.775 6 3.5 6C3.223 6 3 5.776 3 5.5ZM3.5 7C3.223 7 3 7.224 3 7.5C3 7.776 3.223 8 3.5 8C3.775 8 4 7.776 4 7.5C4 7.224 3.775 7 3.5 7ZM21 7.5C21 7.224 21.223 7 21.5 7C21.775 7 22 7.224 22 7.5C22 7.776 21.775 8 21.5 8C21.223 8 21 7.776 21 7.5ZM19.5 7C19.223 7 19 7.224 19 7.5C19 7.776 19.223 8 19.5 8C19.775 8 20 7.776 20 7.5C20 7.224 19.775 7 19.5 7ZM17 7.5C17 7.224 17.223 7 17.5 7C17.775 7 18 7.224 18 7.5C18 7.776 17.775 8 17.5 8C17.223 8 17 7.776 17 7.5ZM3.5 9C3.223 9 3 9.224 3 9.5C3 9.776 3.223 10 3.5 10C3.775 10 4 9.776 4 9.5C4 9.224 3.775 9 3.5 9ZM21 9.5C21 9.224 21.223 9 21.5 9C21.775 9 22 9.224 22 9.5C22 9.776 21.775 10 21.5 10C21.223 10 21 9.776 21 9.5ZM3.5 11C3.223 11 3 11.224 3 11.5C3 11.776 3.223 12 3.5 12C3.775 12 4 11.776 4 11.5C4 11.224 3.775 11 3.5 11ZM21 11.5C21 11.224 21.223 11 21.5 11C21.775 11 22 11.224 22 11.5C22 11.776 21.775 12 21.5 12C21.223 12 21 11.776 21 11.5ZM3.5 13C3.223 13 3 13.224 3 13.5C3 13.776 3.223 14 3.5 14C3.775 14 4 13.776 4 13.5C4 13.224 3.775 13 3.5 13ZM21 13.5C21 13.224 21.223 13 21.5 13C21.775 13 22 13.224 22 13.5C22 13.776 21.775 14 21.5 14C21.223 14 21 13.776 21 13.5ZM3.5 15C3.223 15 3 15.224 3 15.5C3 15.776 3.223 16 3.5 16C3.775 16 4 15.776 4 15.5C4 15.224 3.775 15 3.5 15ZM21 15.5C21 15.224 21.223 15 21.5 15C21.775 15 22 15.224 22 15.5C22 15.776 21.775 16 21.5 16C21.223 16 21 15.776 21 15.5ZM3.5 17C3.223 17 3 17.224 3 17.5C3 17.776 3.223 18 3.5 18C3.775 18 4 17.776 4 17.5C4 17.224 3.775 17 3.5 17ZM21 17.5C21 17.224 21.223 17 21.5 17C21.775 17 22 17.224 22 17.5C22 17.776 21.775 18 21.5 18C21.223 18 21 17.776 21 17.5ZM3.5 19C3.223 19 3 19.224 3 19.5C3 19.776 3.223 20 3.5 20C3.775 20 4 19.776 4 19.5C4 19.224 3.775 19 3.5 19ZM21 19.5C21 19.224 21.223 19 21.5 19C21.775 19 22 19.224 22 19.5C22 19.776 21.775 20 21.5 20C21.223 20 21 19.776 21 19.5ZM3.5 21C3.223 21 3 21.224 3 21.5C3 21.776 3.223 22 3.5 22C3.775 22 4 21.776 4 21.5C4 21.224 3.775 21 3.5 21ZM21 21.5C21 21.224 21.223 21 21.5 21C21.775 21 22 21.224 22 21.5C22 21.776 21.775 22 21.5 22C21.223 22 21 21.776 21 21.5ZM3.5 23C3.223 23 3 23.224 3 23.5C3 23.776 3.223 24 3.5 24C3.775 24 4 23.776 4 23.5C4 23.224 3.775 23 3.5 23ZM21 23.5C21 23.224 21.223 23 21.5 23C21.775 23 22 23.224 22 23.5C22 23.776 21.775 24 21.5 24C21.223 24 21 23.776 21 23.5Z" fill="#0067C5"/>
  </g>
  <defs>
    <clipPath id="clip0_3911_58033">
      <rect width="24" height="24" fill="white"/>
    </clipPath>
  </defs>
</svg>
