<svg width="24" height="24" viewBox="0 0 24 24" fill="none" xmlns="http://www.w3.org/2000/svg">
  <path fill-rule="evenodd" clip-rule="evenodd" d="M17 10.026V5.5C17 5.367 16.947 5.24 16.854 5.146L11.854 0.146C11.76 0.053 11.633 0 11.5 0H0.5C0.225 0 0 0.224 0 0.5V21.5C0 21.776 0.225 22 0.5 22H11.514C10.568 20.744 10 19.189 10 17.5C10 13.533 13.098 10.284 17 10.026ZM11.5 0.5L16.5 5.5H11.5V0.5ZM17.5 11C13.916 11 11 13.915 11 17.5C11 21.084 13.916 24 17.5 24C21.084 24 24 21.084 24 17.5C24 13.915 21.084 11 17.5 11ZM20.229 18H18V20.227C18 20.503 17.777 20.727 17.5 20.727C17.225 20.727 17 20.503 17 20.227V18H14.773C14.496 18 14.273 17.776 14.273 17.5C14.273 17.224 14.496 17 14.773 17H17V14.772C17 14.496 17.225 14.272 17.5 14.272C17.777 14.272 18 14.496 18 14.772V17H20.229C20.504 17 20.729 17.224 20.729 17.5C20.729 17.776 20.504 18 20.229 18Z" fill="#0067C5"/>
</svg>
